<svg xmlns="http://www.w3.org/2000/svg" xmlns:xlink="http://www.w3.org/1999/xlink" width="1080" zoomAndPan="magnify" viewBox="0 0 810 809.999993" height="1080" preserveAspectRatio="xMidYMid meet" version="1.0"><defs><g/><clipPath id="bba1fed6cc"><rect x="0" width="672" y="0" height="257"/></clipPath><clipPath id="babc6ec411"><path d="M 384.914062 310.734375 L 472.84375 310.734375 L 472.84375 322.296875 L 384.914062 322.296875 Z M 384.914062 310.734375 " clip-rule="nonzero"/></clipPath><clipPath id="fc5c9aa9a3"><path d="M 390.695312 310.734375 L 467.035156 310.734375 C 468.566406 310.734375 470.039062 311.34375 471.121094 312.425781 C 472.207031 313.511719 472.816406 314.980469 472.816406 316.515625 C 472.816406 318.046875 472.207031 319.519531 471.121094 320.601562 C 470.039062 321.6875 468.566406 322.296875 467.035156 322.296875 L 390.695312 322.296875 C 389.160156 322.296875 387.691406 321.6875 386.605469 320.601562 C 385.523438 319.519531 384.914062 318.046875 384.914062 316.515625 C 384.914062 314.980469 385.523438 313.511719 386.605469 312.425781 C 387.691406 311.34375 389.160156 310.734375 390.695312 310.734375 Z M 390.695312 310.734375 " clip-rule="nonzero"/></clipPath><clipPath id="8cd68ce846"><path d="M 0.914062 0.734375 L 88.84375 0.734375 L 88.84375 12.296875 L 0.914062 12.296875 Z M 0.914062 0.734375 " clip-rule="nonzero"/></clipPath><clipPath id="d1f3f70c89"><path d="M 6.695312 0.734375 L 83.035156 0.734375 C 84.566406 0.734375 86.039062 1.34375 87.121094 2.425781 C 88.207031 3.511719 88.816406 4.980469 88.816406 6.515625 C 88.816406 8.046875 88.207031 9.519531 87.121094 10.601562 C 86.039062 11.6875 84.566406 12.296875 83.035156 12.296875 L 6.695312 12.296875 C 5.160156 12.296875 3.691406 11.6875 2.605469 10.601562 C 1.523438 9.519531 0.914062 8.046875 0.914062 6.515625 C 0.914062 4.980469 1.523438 3.511719 2.605469 2.425781 C 3.691406 1.34375 5.160156 0.734375 6.695312 0.734375 Z M 6.695312 0.734375 " clip-rule="nonzero"/></clipPath><clipPath id="1745fbe91c"><rect x="0" width="89" y="0" height="13"/></clipPath><clipPath id="63aeba6b22"><path d="M 72.726562 471.824219 L 115.253906 471.824219 L 115.253906 481.136719 L 72.726562 481.136719 Z M 72.726562 471.824219 " clip-rule="nonzero"/></clipPath><clipPath id="61d5a5e5e6"><path d="M 77.382812 471.824219 L 110.59375 471.824219 C 111.828125 471.824219 113.011719 472.3125 113.882812 473.1875 C 114.757812 474.058594 115.25 475.242188 115.25 476.480469 C 115.25 477.714844 114.757812 478.898438 113.882812 479.769531 C 113.011719 480.644531 111.828125 481.136719 110.59375 481.136719 L 77.382812 481.136719 C 76.148438 481.136719 74.964844 480.644531 74.09375 479.769531 C 73.21875 478.898438 72.726562 477.714844 72.726562 476.480469 C 72.726562 475.242188 73.21875 474.058594 74.09375 473.1875 C 74.964844 472.3125 76.148438 471.824219 77.382812 471.824219 Z M 77.382812 471.824219 " clip-rule="nonzero"/></clipPath><clipPath id="6b24a91e75"><path d="M 0.726562 0.824219 L 43.253906 0.824219 L 43.253906 10.136719 L 0.726562 10.136719 Z M 0.726562 0.824219 " clip-rule="nonzero"/></clipPath><clipPath id="e5fedfdd4e"><path d="M 5.382812 0.824219 L 38.59375 0.824219 C 39.828125 0.824219 41.011719 1.3125 41.882812 2.1875 C 42.757812 3.058594 43.25 4.242188 43.25 5.480469 C 43.25 6.714844 42.757812 7.898438 41.882812 8.769531 C 41.011719 9.644531 39.828125 10.136719 38.59375 10.136719 L 5.382812 10.136719 C 4.148438 10.136719 2.964844 9.644531 2.09375 8.769531 C 1.21875 7.898438 0.726562 6.714844 0.726562 5.480469 C 0.726562 4.242188 1.21875 3.058594 2.09375 2.1875 C 2.964844 1.3125 4.148438 0.824219 5.382812 0.824219 Z M 5.382812 0.824219 " clip-rule="nonzero"/></clipPath><clipPath id="2951272467"><rect x="0" width="44" y="0" height="11"/></clipPath><clipPath id="2967c48f9c"><path d="M 179.457031 471.824219 L 221.984375 471.824219 L 221.984375 481.136719 L 179.457031 481.136719 Z M 179.457031 471.824219 " clip-rule="nonzero"/></clipPath><clipPath id="eb726fef8c"><path d="M 184.113281 471.824219 L 217.320312 471.824219 C 218.554688 471.824219 219.742188 472.3125 220.613281 473.1875 C 221.488281 474.058594 221.976562 475.242188 221.976562 476.480469 C 221.976562 477.714844 221.488281 478.898438 220.613281 479.769531 C 219.742188 480.644531 218.554688 481.136719 217.320312 481.136719 L 184.113281 481.136719 C 182.878906 481.136719 181.695312 480.644531 180.820312 479.769531 C 179.949219 478.898438 179.457031 477.714844 179.457031 476.480469 C 179.457031 475.242188 179.949219 474.058594 180.820312 473.1875 C 181.695312 472.3125 182.878906 471.824219 184.113281 471.824219 Z M 184.113281 471.824219 " clip-rule="nonzero"/></clipPath><clipPath id="6cd93b6d8b"><path d="M 0.457031 0.824219 L 42.984375 0.824219 L 42.984375 10.136719 L 0.457031 10.136719 Z M 0.457031 0.824219 " clip-rule="nonzero"/></clipPath><clipPath id="ffb6f89f4b"><path d="M 5.113281 0.824219 L 38.320312 0.824219 C 39.554688 0.824219 40.742188 1.3125 41.613281 2.1875 C 42.488281 3.058594 42.976562 4.242188 42.976562 5.480469 C 42.976562 6.714844 42.488281 7.898438 41.613281 8.769531 C 40.742188 9.644531 39.554688 10.136719 38.320312 10.136719 L 5.113281 10.136719 C 3.878906 10.136719 2.695312 9.644531 1.820312 8.769531 C 0.949219 7.898438 0.457031 6.714844 0.457031 5.480469 C 0.457031 4.242188 0.949219 3.058594 1.820312 2.1875 C 2.695312 1.3125 3.878906 0.824219 5.113281 0.824219 Z M 5.113281 0.824219 " clip-rule="nonzero"/></clipPath><clipPath id="7914914193"><rect x="0" width="43" y="0" height="11"/></clipPath></defs><rect x="-81" width="972" fill="#ffffff" y="-80.999999" height="971.999992" fill-opacity="1"/><rect x="-81" width="972" fill="#ffffff" y="-80.999999" height="971.999992" fill-opacity="1"/><g transform="matrix(1, 0, 0, 1, 69, 271)"><g clip-path="url(#bba1fed6cc)"><g fill="#000000" fill-opacity="1"><g transform="translate(0.665654, 194.936365)"><g><path d="M 50.859375 -190.296875 L 105.125 -190.296875 L 152.578125 0 L 110.484375 0 L 101.234375 -40.875 L 54.75 -40.875 L 45.75 0 L 3.40625 0 Z M 77.875 -144.796875 L 62.296875 -74.953125 L 93.4375 -74.953125 Z M 77.875 -144.796875 "/></g></g></g><g fill="#000000" fill-opacity="1"><g transform="translate(153.727507, 194.936365)"><g><path d="M 88.328125 -2.671875 L 88.328125 -17.765625 C 84.765625 -13.710938 80.265625 -10.507812 74.828125 -8.15625 C 69.390625 -5.800781 62.859375 -4.625 55.234375 -4.625 C 38.035156 -4.625 25.742188 -10.097656 18.359375 -21.046875 C 10.984375 -31.992188 7.296875 -46.632812 7.296875 -64.96875 L 7.296875 -71.78125 C 7.296875 -83.300781 8.914062 -93.601562 12.15625 -102.6875 C 15.40625 -111.769531 20.554688 -118.945312 27.609375 -124.21875 C 34.671875 -129.5 43.878906 -132.140625 55.234375 -132.140625 C 64.316406 -132.140625 71.816406 -130.4375 77.734375 -127.03125 C 83.660156 -123.625 88.410156 -119.320312 91.984375 -114.125 L 94.65625 -128.96875 L 128.96875 -128.96875 L 126.78125 -92.46875 L 126.78125 -2.4375 C 126.78125 15.25 121.910156 28.710938 112.171875 37.953125 C 102.441406 47.203125 87.4375 51.828125 67.15625 51.828125 C 52.882812 51.828125 41.53125 49.757812 33.09375 45.625 C 24.65625 41.488281 18.648438 35.847656 15.078125 28.703125 C 11.515625 21.566406 9.734375 13.703125 9.734375 5.109375 L 9.734375 0 L 45.984375 0 C 45.984375 6 47.40625 10.945312 50.25 14.84375 C 53.09375 18.738281 58.488281 20.6875 66.4375 20.6875 C 73.894531 20.6875 79.40625 18.984375 82.96875 15.578125 C 86.539062 12.171875 88.328125 6.085938 88.328125 -2.671875 Z M 66.4375 -37.71875 C 72.269531 -37.71875 77.007812 -39.175781 80.65625 -42.09375 C 84.3125 -45.019531 86.867188 -47.617188 88.328125 -49.890625 L 88.328125 -86.875 C 86.867188 -89.144531 84.3125 -91.738281 80.65625 -94.65625 C 77.007812 -97.582031 72.269531 -99.046875 66.4375 -99.046875 C 59.457031 -99.046875 54.265625 -96.53125 50.859375 -91.5 C 47.453125 -86.46875 45.75 -79.894531 45.75 -71.78125 L 45.75 -64.96875 C 45.75 -46.800781 52.644531 -37.71875 66.4375 -37.71875 Z M 66.4375 -37.71875 "/></g></g></g><g fill="#000000" fill-opacity="1"><g transform="translate(293.405552, 194.936365)"><g><path d="M 67.65625 3.15625 C 53.863281 3.15625 42.503906 0.484375 33.578125 -4.859375 C 24.660156 -10.210938 18.050781 -17.675781 13.75 -27.25 C 9.445312 -36.820312 7.296875 -47.773438 7.296875 -60.109375 L 7.296875 -68.859375 C 7.296875 -81.359375 9.445312 -92.351562 13.75 -101.84375 C 18.050781 -111.332031 24.660156 -118.753906 33.578125 -124.109375 C 42.503906 -129.460938 53.863281 -132.140625 67.65625 -132.140625 C 81.601562 -132.140625 93 -129.460938 101.84375 -124.109375 C 110.6875 -118.753906 117.253906 -111.332031 121.546875 -101.84375 C 125.847656 -92.351562 128 -81.359375 128 -68.859375 L 128 -60.109375 C 128 -47.773438 125.847656 -36.820312 121.546875 -27.25 C 117.253906 -17.675781 110.6875 -10.210938 101.84375 -4.859375 C 93 0.484375 81.601562 3.15625 67.65625 3.15625 Z M 67.65625 -29.9375 C 75.28125 -29.9375 80.832031 -32.609375 84.3125 -37.953125 C 87.800781 -43.304688 89.546875 -50.691406 89.546875 -60.109375 L 89.546875 -68.859375 C 89.546875 -78.429688 87.800781 -85.851562 84.3125 -91.125 C 80.832031 -96.40625 75.28125 -99.046875 67.65625 -99.046875 C 60.1875 -99.046875 54.664062 -96.40625 51.09375 -91.125 C 47.53125 -85.851562 45.75 -78.429688 45.75 -68.859375 L 45.75 -60.109375 C 45.75 -50.691406 47.53125 -43.304688 51.09375 -37.953125 C 54.664062 -32.609375 60.1875 -29.9375 67.65625 -29.9375 Z M 67.65625 -29.9375 "/></g></g></g><g fill="#000000" fill-opacity="1"><g transform="translate(425.783385, 194.936365)"><g><path d="M 93.203125 -88.828125 L 75.1875 0 L 26.765625 0 L 4.625 -128.96875 L 42.34375 -128.96875 L 52.078125 -41.609375 L 70.078125 -128.96875 L 116.078125 -128.96875 L 134.328125 -41.609375 L 144.0625 -128.96875 L 181.78125 -128.96875 L 159.390625 0 L 111.203125 0 Z M 93.203125 -88.828125 "/></g></g></g><g fill="#38b6ff" fill-opacity="1"><g transform="translate(606.596145, 194.936365)"><g><path d="M 52.5625 -40.640625 L 52.5625 0 L 12.171875 0 L 12.171875 -40.640625 Z M 52.5625 -40.640625 "/></g></g></g></g></g><g clip-path="url(#babc6ec411)"><g clip-path="url(#fc5c9aa9a3)"><g transform="matrix(1, 0, 0, 1, 384, 310)"><g clip-path="url(#1745fbe91c)"><g clip-path="url(#8cd68ce846)"><g clip-path="url(#d1f3f70c89)"><path fill="#38b6ff" d="M 0.914062 0.734375 L 88.800781 0.734375 L 88.800781 12.296875 L 0.914062 12.296875 Z M 0.914062 0.734375 " fill-opacity="1" fill-rule="nonzero"/></g></g></g></g></g></g><g clip-path="url(#63aeba6b22)"><g clip-path="url(#61d5a5e5e6)"><g transform="matrix(1, 0, 0, 1, 72, 471)"><g clip-path="url(#2951272467)"><g clip-path="url(#6b24a91e75)"><g clip-path="url(#e5fedfdd4e)"><path fill="#38b6ff" d="M 0.726562 0.824219 L 43.253906 0.824219 L 43.253906 10.136719 L 0.726562 10.136719 Z M 0.726562 0.824219 " fill-opacity="1" fill-rule="nonzero"/></g></g></g></g></g></g><g clip-path="url(#2967c48f9c)"><g clip-path="url(#eb726fef8c)"><g transform="matrix(1, 0, 0, 1, 179, 471)"><g clip-path="url(#7914914193)"><g clip-path="url(#6cd93b6d8b)"><g clip-path="url(#ffb6f89f4b)"><path fill="#38b6ff" d="M 0.457031 0.824219 L 42.984375 0.824219 L 42.984375 10.136719 L 0.457031 10.136719 Z M 0.457031 0.824219 " fill-opacity="1" fill-rule="nonzero"/></g></g></g></g></g></g></svg>